<svg width="44" height="44" viewBox="0 0 44 44" fill="none" xmlns="http://www.w3.org/2000/svg">
<g id="&#240;&#159;&#166;&#134; icon &#34;search&#34;">
<path id="Vector" d="M28.4165 25.6667H26.9681L26.4548 25.1717C28.6548 22.605 29.7915 19.1034 29.1681 15.3817C28.3065 10.285 24.0531 6.21505 18.9198 5.59171C11.1648 4.63838 4.63814 11.165 5.59147 18.92C6.2148 24.0534 10.2848 28.3067 15.3815 29.1684C19.1031 29.7917 22.6048 28.655 25.1715 26.455L25.6665 26.9684V28.4167L33.4581 36.2084C34.2098 36.96 35.4381 36.96 36.1898 36.2084C36.9415 35.4567 36.9415 34.2284 36.1898 33.4767L28.4165 25.6667ZM17.4165 25.6667C12.8515 25.6667 9.16647 21.9817 9.16647 17.4167C9.16647 12.8517 12.8515 9.16672 17.4165 9.16672C21.9815 9.16672 25.6665 12.8517 25.6665 17.4167C25.6665 21.9817 21.9815 25.6667 17.4165 25.6667Z" fill="#C0C0C0"/>
</g>
</svg>
